<svg xmlns="http://www.w3.org/2000/svg" viewBox="0 0 32 32" id="Medical">
  <path d="M10.488 3a.5.5 0 0 0-.5.5V8H1.521a.5.5 0 0 0-.5.5v2.885a.5.5 0 0 0 0 .228v2.733a.5.5 0 0 0 0 .306v2.694a.5.5 0 0 0 0 .306v2.694a.5.5 0 0 0 0 .306v2.645a.5.5 0 0 0 0 .404v2.596a.5.5 0 0 0 0 .404v2.801a.5.5 0 0 0 .5.498H20.48a.5.5 0 0 0 .012 0h8.994a.5.5 0 0 0 .5-.498v-2.818a.5.5 0 0 0 0-.37v-2.63a.5.5 0 0 0 0-.37v-2.63a.5.5 0 0 0 0-.37v-2.63a.5.5 0 0 0 0-.37v-2.63a.5.5 0 0 0 0-.37v-2.746a.5.5 0 0 0 0-.142V8.5a.5.5 0 0 0-.5-.5H20.98V3.5a.5.5 0 0 0-.5-.5h-9.992zm.5 1h8.992v19.406a.5.5 0 0 0 0 .188v2.812a.5.5 0 0 0 0 .188v2.408h-1.986V21h.469a.5.5 0 1 0 0-.998h-5.957a.5.5 0 1 0 0 .998h.492v8.002h-1.984v-2.38a.5.5 0 0 0 0-.245v-2.756a.5.5 0 0 0 0-.244v-2.756a.5.5 0 0 0 0-.244v-2.756a.5.5 0 0 0 0-.244v-2.756a.5.5 0 0 0 0-.244V8.5a.5.5 0 0 0-.026-.158V4zm3.51 4a.5.5 0 0 0-.5.5V10h-1.5a.5.5 0 0 0-.5.5v2a.5.5 0 0 0 .5.5h1.5v1.5a.5.5 0 0 0 .5.5h1.998a.5.5 0 0 0 .5-.5V13h1.498a.5.5 0 0 0 .5-.5v-2a.5.5 0 0 0-.5-.5h-1.498V8.5a.5.5 0 0 0-.5-.5h-1.998zM2.021 9h1.983v2H2.02V9zm2.983 0h1.998v2H5.004V9zm2.998 0h1.986v2H8.002V9zm6.994 0h1v1.5a.5.5 0 0 0 .5.5h1.498v1h-1.498a.5.5 0 0 0-.5.5v1.502h-1V12.5a.5.5 0 0 0-.498-.5h-1.5v-1h1.5a.5.5 0 0 0 .498-.5V9zm5.996 0h1.998v2h-1.998V9zm2.998 0h1.998v2H23.99V9zm2.998 0h1.998v2h-1.998V9zM2.021 12h1.983v2.002H2.02V12zm2.983 0h1.998v2.002H5.004V12zm2.998 0h1.986v2.002H8.002V12zm12.99 0h1.998v2.002h-1.998V12zm2.998 0h1.998v2.002H23.99V12zm2.998 0h1.998v2.002h-1.998V12zM2.021 15h1.983v2.002H2.02V15zm2.983 0h1.998v2.002H5.004V15zm2.998 0h1.986v2.002H8.002V15zm12.99 0h1.998v2.002h-1.998V15zm2.998 0h1.998v2.002H23.99V15zm2.998 0h1.998v2.002h-1.998V15zM2.021 18h1.983v2.002H2.02V18zm2.983 0h1.998v2.002H5.004V18zm2.998 0h1.986v2.002H8.002V18zm12.99 0h1.998v2.002h-1.998V18zm2.998 0h1.998v2.002H23.99V18zm2.998 0h1.998v2.002h-1.998V18zM2.021 21h1.983v2.002H2.02V21zm2.983 0h1.998v2.002H5.004V21zm2.998 0h1.986v2.002H8.002V21zm5.996 0h2.996v8.002h-2.996V21zm6.994 0h1.998v2.002h-1.998V21zm2.998 0h1.998v2.002H23.99V21zm2.998 0h1.998v2.002h-1.998V21zM2.021 24h1.983v2.002H2.02V24zm2.983 0h1.998v2.002H5.004V24zm2.998 0h1.986v2.002H8.002V24zm12.99 0h1.998v2.002h-1.998V24zm2.998 0h1.998v2.002H23.99V24zm2.998 0h1.998v2.002h-1.998V24zM2.021 27h1.983v2.002H2.02V27zm2.983 0h1.998v2.002H5.004V27zm2.998 0h1.986v2.002H8.002V27zm12.99 0h1.998v2.002h-1.998V27zm2.998 0h1.998v2.002H23.99V27zm2.998 0h1.998v2.002h-1.998V27z" color="#000" font-family="sans-serif" font-weight="400" overflow="visible" style="line-height:normal;text-indent:0;text-align:start;text-decoration-line:none;text-decoration-style:solid;text-decoration-color:#000;text-transform:none;block-progression:tb;white-space:normal;isolation:auto;mix-blend-mode:normal;solid-color:#000;solid-opacity:1" fill="#595bd4" class="color000000 svgShape"></path>
</svg>
